<svg width="14" height="14" viewBox="0 0 14 14" fill="none" xmlns="http://www.w3.org/2000/svg">
<path fill-rule="evenodd" clip-rule="evenodd" d="M7 0.994141C8.53516 0.994141 10.0699 1.58163 11.2441 2.75586C13.5927 5.10443 13.5927 8.89557 11.2441 11.2441C8.89558 13.5927 5.10442 13.5927 2.75586 11.2441C0.407311 8.89557 0.407304 5.10443 2.75586 2.75586C3.93014 1.58163 5.46484 0.994141 7 0.994141ZM9.45313 4.02148C9.32309 4.02561 9.19978 4.08026 9.10938 4.17383L6.99609 6.29492L4.875 4.17969C4.78014 4.08375 4.65054 4.03022 4.51563 4.03125C4.06949 4.03486 3.85106 4.57662 4.16992 4.88867L6.29102 7.00391L4.17578 9.125C3.68495 9.59625 4.41156 10.3229 4.88281 9.83203L6.99805 7.70898L9.11914 9.82422C9.5904 10.3151 10.317 9.58844 9.82617 9.11719L7.70508 7.00195L9.81836 4.88086C10.148 4.56239 9.9112 4.00516 9.45313 4.02148Z" fill="black"/>
</svg>
